<svg xmlns="http://www.w3.org/2000/svg" xmlns:xlink="http://www.w3.org/1999/xlink" version="1.1" viewBox="-84.96 112.15 1139.43 855.7">
<desc>Created with Fabric.js 4.2.0</desc>
<defs>
</defs>
<g transform="matrix(1 0 0 1 540 540)" id="b13d279c-a7c8-43f8-8418-b25b69802bc2">
</g>
<g transform="matrix(1.05 0 0 1.05 484.45 540)">
<g style="" vector-effect="non-scaling-stroke">
		<g transform="matrix(1.14 0 0 1.14 201.2 81.18)">
<path style="stroke: none; stroke-width: 1; stroke-dasharray: none; stroke-linecap: butt; stroke-dashoffset: 0; stroke-linejoin: miter; stroke-miterlimit: 4; fill: rgb(255,219,144); fill-rule: nonzero; opacity: 1;" vector-effect="non-scaling-stroke" transform=" translate(-165.62, -226.03)" d="M -94.1058 347.385 C -173.166 264.173 -129.411 152.842 -11.8513 152.738 C 38.2839 152.698 81.5833 146.74 126.879 119.868 C 191.565 81.4719 231.015 20.0446 315.697 30.4263 C 441.73 45.7432 496.13 170.706 447.911 280.464 C 414.698 356.026 345.173 393.703 268.301 409.388 C 162.153 431.013 -12.602 436.468 -94.1058 347.385 Z" stroke-linecap="round"/>
</g>
		<g transform="matrix(-0.7 0.9 -0.9 -0.7 -155.41 0)">
<path style="stroke: none; stroke-width: 1; stroke-dasharray: none; stroke-linecap: butt; stroke-dashoffset: 0; stroke-linejoin: miter; stroke-miterlimit: 4; fill: rgb(214,235,244); fill-rule: nonzero; opacity: 1;" vector-effect="non-scaling-stroke" transform=" translate(-165.62, -226.03)" d="M -94.1058 347.385 C -173.166 264.173 -129.411 152.842 -11.8513 152.738 C 38.2839 152.698 81.5833 146.74 126.879 119.868 C 191.565 81.4719 231.015 20.0446 315.697 30.4263 C 441.73 45.7432 496.13 170.706 447.911 280.464 C 414.698 356.026 345.173 393.703 268.301 409.388 C 162.153 431.013 -12.602 436.468 -94.1058 347.385 Z" stroke-linecap="round"/>
</g>
		<g transform="matrix(47.86 0 0 47.86 65.11 -68.26)">
<path style="stroke: rgb(0,0,0); stroke-width: 0; stroke-dasharray: none; stroke-linecap: butt; stroke-dashoffset: 0; stroke-linejoin: miter; stroke-miterlimit: 4; fill: rgb(0,0,0); fill-rule: nonzero; opacity: 1;" vector-effect="non-scaling-stroke" transform=" translate(-8, -7.5)" d="M 0.54 3.87 L 0.5 3 C 0.5 1.895430500338413 1.395430500338413 1 2.5 1 L 6.172000000000001 1 C 6.702389626957629 1.0001132748109898 7.211014537285083 1.2109012503780958 7.585999999999999 1.5859999999999992 L 8.414 2.4139999999999997 C 8.788985462714916 2.7890987496219033 9.297610373042371 2.9998867251890093 9.828 3 L 13.809999999999999 3 C 14.371944507063548 2.99994181344107 14.907988548753293 3.2362943728740303 15.286958175882914 3.651220455589744 C 15.665927803012535 4.066146538305458 15.852855981174343 4.6213614545232184 15.802 5.180999999999999 L 15.165 12.181000000000001 C 15.071411322559975 13.21088633969406 14.208129849263837 13.999590006155977 13.174 14 L 2.826 14 C 1.7918701507361623 13.999590006155977 0.9285886774400236 13.21088633969406 0.835 12.181000000000001 L 0.19799999999999995 5.181000000000001 C 0.15538623098938223 4.717782492347585 0.2763940224250574 4.254273115795729 0.5400000000000003 3.8710000000000004 z M 2.19 4 C 1.9091230222874496 3.9999836431888887 1.6411881700891677 4.1180921977290375 1.4517202526954953 4.32544162539882 C 1.262252335301823 4.532791053068602 1.1687210714867386 4.810262886535049 1.194 5.09 L 1.831 12.09 C 1.8775341360619322 12.604950220712128 2.3089517251732294 12.99951304090437 2.8260000000000005 13 L 13.174000000000001 13 C 13.691048274826771 12.99951304090437 14.122465863938068 12.604950220712128 14.169 12.09 L 14.806000000000001 5.09 C 14.831278928513262 4.810262886535048 14.737747664698178 4.5327910530686015 14.548279747304505 4.3254416253988195 C 14.358811829910833 4.1180921977290375 14.09087697771255 3.9999836431888887 13.81 4 L 2.19 4 z M 6.880000000000001 2.293 C 6.692262313828545 2.105205444372648 6.437541315719522 1.9997912460026708 6.171999999999999 2 L 2.5 2 C 1.9550509222374148 1.9999016279796986 1.5103540237673267 2.436149285378855 1.5 2.981 L 1.506 3.12 C 1.72 3.042 1.95 3 2.19 3 L 7.586 3 L 6.8790000000000004 2.293 z" stroke-linecap="round"/>
</g>
		<g transform="matrix(1.73 0 0 1.73 65.07 -59.59)">
<g style="" vector-effect="non-scaling-stroke">
		<g transform="matrix(2.5 0 0 2.5 -94.57 0.19)">
<path style="stroke: none; stroke-width: 1; stroke-dasharray: none; stroke-linecap: butt; stroke-dashoffset: 0; stroke-linejoin: miter; stroke-miterlimit: 4; fill: rgb(0,0,0); fill-rule: nonzero; opacity: 1;" vector-effect="non-scaling-stroke" transform=" translate(-161.51, -196.14)" d="M 161.509 212.413 C 157.24099999999999 212.413 153.783 208.954 153.783 204.687 L 153.783 187.586 C 153.783 183.31900000000002 157.24099999999999 179.86 161.509 179.86 C 165.777 179.86 169.23499999999999 183.31900000000002 169.23499999999999 187.586 L 169.23499999999999 204.687 C 169.236 208.954 165.777 212.413 161.509 212.413 z" stroke-linecap="round"/>
</g>
		<g transform="matrix(2.5 0 0 2.5 94.58 -0.19)">
<path style="stroke: none; stroke-width: 1; stroke-dasharray: none; stroke-linecap: butt; stroke-dashoffset: 0; stroke-linejoin: miter; stroke-miterlimit: 4; fill: rgb(0,0,0); fill-rule: nonzero; opacity: 1;" vector-effect="non-scaling-stroke" transform=" translate(-161.51, -196.14)" d="M 161.509 212.413 C 157.24099999999999 212.413 153.783 208.954 153.783 204.687 L 153.783 187.586 C 153.783 183.31900000000002 157.24099999999999 179.86 161.509 179.86 C 165.777 179.86 169.23499999999999 183.31900000000002 169.23499999999999 187.586 L 169.23499999999999 204.687 C 169.236 208.954 165.777 212.413 161.509 212.413 z" stroke-linecap="round"/>
</g>
</g>
</g>
		<g transform="matrix(2.5 -0.77 0.77 2.5 64.87 83.22)">
<path style="stroke: none; stroke-width: 1; stroke-dasharray: none; stroke-linecap: butt; stroke-dashoffset: 0; stroke-linejoin: miter; stroke-miterlimit: 4; fill: rgb(0,0,0); fill-rule: nonzero; opacity: 1;" vector-effect="non-scaling-stroke" transform=" translate(-256, -208.65)" d="M 255.999 221.541 C 244.68 221.541 234.059 216.81799999999998 226.85999999999999 208.581 C 224.051 205.368 224.379 200.488 227.59099999999998 197.679 C 230.80399999999997 194.87 235.68499999999997 195.197 238.49299999999997 198.41 C 242.75899999999996 203.289 249.13899999999995 206.087 255.99799999999996 206.087 C 262.85799999999995 206.087 269.23799999999994 203.289 273.50199999999995 198.411 C 276.30899999999997 195.197 281.19199999999995 194.869 284.40299999999996 197.679 C 287.616 200.487 287.94499999999994 205.368 285.135 208.581 C 277.939 216.818 267.318 221.541 255.999 221.541 z" stroke-linecap="round"/>
</g>
</g>
</g>
</svg>